<svg data-v-8c8508d2="" id="Vrstva_1" xmlns="http://www.w3.org/2000/svg" version="1.1" viewBox="0 0 340 397" role="img" aria-label="Logo" class="h-full w-full object-contain lg:scale-[1.08]" style="display: block;"><polygon fill="#d8d7e7" fill-rule="evenodd" points="55.86 236.32 260.94 236.32 311.04 31.92 105.97 31.92 55.86 236.32"></polygon><path fill="#21409a" fill-rule="evenodd" d="M82.58,127.8c20.39-34.65,35.19-57.96,62.72-76.17,13.24-8.8,31.8-18.65,42.51-2.2,8.8,13.63,2.61,28.32,3.05,44.42.7,21.99,18.56,32.02,33.02,33.16,16.38,1.32,33.89-10.99,45.21-22.87,19.25-20.23,31.27-45.12,42.51-72.21l-205.51-.18-23.52,96.05Z"></path><path fill="#21409a" fill-rule="evenodd" d="M55.6,235.99c13.94-34.39,27.88-66.85,54.62-85.23,12.89-8.88,46.08-23.66,60.89,6.6,6.97,14.16,2.27,28.5,3.83,44.07,2,19.79,6.45,24.54,20.56,24.72,10.45.18,28.31-8.62,39.38-20.32,19.08-19.97,34.06-39.14,49.74-65.7l-23.7,96.22-205.33-.35Z"></path><polygon fill="#faa74a" fill-rule="evenodd" points="82.39 128.89 287.55 128.89 284.95 137.33 79.79 137.33 82.39 128.89"></polygon><path fill="#21409a" fill-rule="evenodd" d="M128.59,240.09h-53.58c-8.54,0-18.12,6.68-20.3,14.95l-13.42,49.26c-2.87,10.64,2.44,21.2,15.16,21.2h48.79l6.97-25.33h-39.38l1.39-4.75h39.12l6.97-25.33h-39.2l1.22-4.66h39.29l6.97-25.33h0ZM132.6,240.09h30.93l-16.73,60.07h39.38l-6.97,25.33h-48.78c-12.72,0-17.34-12.84-15.16-21.2l17.34-64.21h0ZM168.49,240.09h0l26.74,68.78c9.41,24.01,42.69,21.11,48.52-2.73l16.38-66.05h-25.79l-12.98,52.33c-1.22,5.28-3.31,5.37-5.75-.7l-20.12-51.63h-27.01Z"></path><path fill="#faa74a" fill-rule="evenodd" d="M125.44,251.65l-.78,2.37h-45.3c-4.7,0-8.62,2.46-9.76,6.6l-5.66,20.67h53.32l-.78,2.37h-53.14l-6.36,22.78c-1.31,4.93.52,4.93,3.57,4.93h48.52l-.7,2.37h-47.74c-7.93,0-7.06-3.87-6.01-7.74l12.54-45.65c1.57-5.72,5.84-8.71,12.37-8.71h45.91Z"></path><path fill="#faa74a" fill-rule="evenodd" d="M148.86,240.12l-18.12,66.32c-1.13,4.49.52,4.93,3.57,4.93h48.52l-.7,2.37h-47.74c-7.4,0-7.06-3.87-6.01-7.74l18.03-65.88h2.44Z"></path><path fill="#faa74a" fill-rule="evenodd" d="M180.27,240.09h2.53l24.13,61.3c6.8,17.06,21.69,8.88,24.13-.97l15.16-60.34h2.35l-15.07,60.51c-3.57,14.6-22.13,19.17-29.01,1.41l-24.22-61.92Z"></path><path fill="#21409a" fill-rule="evenodd" d="M28.14,364.82l7.3-26.78h7.75c1.79,0,3.73.3,4.62,1.05,1.79.6,2.98,2.56,2.68,5.12-.15.6-.6,1.5-.6,2.26-1.04,3.46-3.13,6.02-5.51,7.07-1.34.6-4.32.9-7.45.9l-2.68,10.38h-6.11ZM38.73,349.63h0c1.64,0,2.83-.3,3.58-.9.45-.3,1.19-1.35,1.19-2.56l.45-1.05c.15-.6-.15-1.66-.75-1.96,0,0-.89-.3-1.49-.3h-1.34l-1.64,6.77h0ZM47.37,364.82h5.96l3.13-10.68h1.94c.6,0,1.19.6,1.04,1.05,0,0,.3.9.15,1.5,0,.3,0,1.35-.15,1.96l-.89,3.16c-.15,1.35-.3,2.26-.3,2.26l-.15.75h6.71l.15-.3s0-.75.15-1.35v-.9l.15-.75,1.34-6.32c0-.75-.15-1.96-.74-2.71-.3-.6-.89-.9-1.49-.9,1.34-.3,2.68-1.35,3.43-2.26s1.49-2.56,1.64-4.21l.6-1.66c.3-3.46-1.64-5.42-5.81-5.42h-9.54l-7.3,26.78h0ZM57.95,349.33h0l1.64-6.47c1.19,0,2.09.3,2.83.3.6.3,1.04,1.35,1.04,1.96l-.15.6c-.45,1.35-1.19,2.71-1.49,3.31-.45,0-1.34.3-2.09.3h-1.79ZM69.13,357h0l3.28-11.89c.89-2.56,2.38-4.82,4.47-6.02,1.64-1.35,4.02-1.96,6.56-1.96,1.94,0,3.73.6,4.92,1.5,1.19,1.05,1.94,3.01,1.79,4.82l-.15.75s-.3.6-.45.9l-3.43,11.89c-.89,3.01-2.09,5.27-3.58,6.47-1.79,1.35-4.32,1.96-7.15,1.96-2.68,0-4.47-.6-5.66-1.65-.45-.9-1.04-2.56-.75-4.51,0-.3.15-.9.15-.9v-1.35h0ZM79.11,344.51h0l-.3.6-3.28,12.19-.15,1.05c0,.6.15,1.66.15,1.66,0,.3.6.6,1.19.6.75,0,1.64-.3,2.09-.6.3-.75,1.04-1.66,1.19-3.01l3.28-11.89.3-.3c.15-.9-.15-1.96-.15-2.26-.3-.3-.89-.6-1.49-.6s-1.34.3-1.64.6-1.04,1.35-1.19,2.26v-.3h0ZM87.16,364.82h8.64c2.53,0,4.92-.75,6.26-1.35,1.34-1.2,2.83-3.16,3.43-5.42l3.58-12.64s.3-.6.3-.9c0,0,.15-.6.15-1.05.15-1.2-.3-2.86-1.19-3.46-.89-1.35-2.98-1.96-5.81-1.96h-8.05l-7.3,26.78h0ZM94.76,360.01h0l4.62-17.15c1.34,0,2.53.3,2.83.6.6,0,.89,1.05.75,1.66l-.45,1.35-2.98,10.83c-.15,1.35-1.19,2.26-1.94,2.26-.6,0-1.64.45-2.83.45h0ZM114.58,338.04h6.11l-5.81,20.61c0,1.35.45,1.96,1.49,1.96.6,0,1.64-.3,1.64-.3.3-.3,1.04-1.35,1.19-1.96l5.22-20.31h6.41l-5.22,19.71c-.89,2.56-2.38,4.51-3.87,5.72-1.34,1.35-4.02,1.96-6.56,1.96-2.24,0-4.02-.6-5.22-1.35-1.19-.6-1.64-2.56-1.49-4.51,0-.3.15-1.2.15-1.81l5.96-19.71h0ZM126.8,364.82h5.96l1.94-6.47,1.94-2.86.89,9.33h6.71l-1.94-14.9,8.94-11.89h-6.41l-7.45,10.68,2.98-10.68h-6.26l-7.3,26.78h0ZM150.65,364.82h0l5.81-21.37h-4.77l1.19-5.42h16.24l-1.49,5.42h-4.77l-6.11,21.37h-6.11ZM188.06,355.19h0c-1.94.6-3.43,1.5-3.73,1.5-.6.6-1.79,1.66-1.79,2.86-.15,1.05.45,1.66,1.64,1.66.3,0,1.04-.3,1.34-.6.45-.3,1.19-1.35,1.19-1.96l1.34-3.46h0ZM185.97,362.87h0c-.75.6-2.09,1.66-2.83,1.96-.89.3-2.24.6-2.83.6-1.34,0-2.24-.3-2.83-.9-.6-.75-1.04-1.96-.89-3.31l.15-1.2c.45-1.66,1.64-3.31,2.38-4.21.6-.6,1.94-1.35,3.28-1.96.75,0,2.38-.6,4.62-1.35.3,0,1.04-.6,1.34-.6.45-.3,1.04-.9,1.19-1.2,0-1.35-.45-2.26-1.49-2.26-.6,0-1.49.3-1.94.6-.3.6-1.04,1.66-1.19,2.26h-5.66c.45-1.96,1.94-3.91,3.28-4.81,1.79-1.35,4.02-1.96,6.26-1.96,2.53,0,4.47.6,5.37,1.2.89.75,1.34,1.66,1.19,3.01,0,.3-.3.9-.45,1.5l-3.58,12.94v.6c-.15.3.15,1.05.15,1.05h-5.66l.15-1.96h0ZM195.36,364.82h5.66l1.94-5.87h-6.11l-1.49,5.87h0ZM206.54,358.65h0l5.07.3.15,1.05c0,.6.15,1.2.15,1.2,0,0,.6.3,1.04.3.6,0,1.19-.3,1.64-.3.6-.3,1.34-.9,1.34-1.66,0-.3-.15-.9-.15-.9,0,0-.6-.6-1.19-.6-2.53-1.05-4.02-1.96-4.62-2.56-1.19-.75-1.64-2.26-1.49-3.91l.15-.6c.15-1.96,1.64-3.61,2.98-4.51,1.79-1.35,4.02-1.96,5.96-1.96s3.43.6,4.32,1.2c1.19.75,1.64,2.26,1.49,3.91l-.45,1.35h-5.07l.15-1.05c0-.3-.3-.9-.3-.9-.3-.3-.89-.6-1.19-.6-.89,0-1.94.6-2.09,1.81-.15.75.45,1.35,1.64,1.96,1.79,1.05,2.98,1.96,3.28,2.26,1.19,1.05,1.94,2.56,1.79,4.21v.6c-.6,1.96-2.09,3.61-3.43,4.51-1.34,1.05-3.58,1.65-6.26,1.65h-.3c-1.94,0-3.73-.6-4.32-1.35-.6-.6-1.04-2.26-.89-3.46,0-.3.15-1.35.3-1.96h.3ZM222.78,364.82h5.66l1.94-5.87h-6.11l-1.49,5.87Z"></path></svg>