<svg xmlns="http://www.w3.org/2000/svg" xmlns:xlink="http://www.w3.org/1999/xlink" viewBox="0 0 233 69" version="1.1">
    <g id="Page-1" stroke="none" stroke-width="1" fill="none" fill-rule="evenodd">
        <g id="logo-3" fill="#1C3F95" fill-rule="nonzero">
            <path d="M67.9,59.2 L66.8,36.1 L66.8,6.1 C66.8,2 64.7,0.2 60.4,0.2 C53.9,0.2 47.4,2.2 41.1,4.8 L41.1,6.8 L50.8,6.8 L50.8,53.9 C47.1,55.5 43.9,56.8 40.1,56.8 C30.6,56.8 26.4,52.1 26.4,40.1 L26.4,5.8 C26.4,1.7 24.4,0 20.3,0 C13.9,0 7.2,2.1 0.8,4.8 L0.8,6.8 L10.5,6.8 L10.5,44.6 C10.5,60.5 17.3,67 29.3,67 C37.2,67 44.6,63.3 50.9,57.6 L50.9,58.4 C51.4,64.3 54.7,66.5 62,66.5 C66.8,66.5 73.3,63.7 77.3,60.3 L77,59.2 L67.9,59.2 Z M156.8,48.8 C153.8,48.8 151.7,51.5 151.7,54.5 C151.7,57.7 153.2,59.5 156.5,59.5 C158.4,59.5 159.9,58.8 160.7,57.8 L160.6,57.6 C159.5,58 158.5,58.1 157.8,58.1 C155.8,58.1 154.4,56.9 154.2,54 L154.2,53.9 L161.2,53.9 L161.2,53.4 C161.1,50.8 159.8,48.8 156.8,48.8 Z M154.1,53.2 C154.2,50.4 155.2,49.4 156.7,49.4 C158.2,49.4 158.8,50.8 158.8,53.2 L154.1,53.2 Z M148.6,57.9 L148.5,54.2 L148.5,52.4 C148.5,49.8 147.4,48.8 145.5,48.8 C144.1,48.8 142.7,49.6 141.7,50.6 C141.2,49.3 140.3,48.8 138.9,48.8 C137.6,48.8 136.4,49.5 135.4,50.4 L135.4,49.7 C135.4,49 135.1,48.8 134.4,48.8 C133.4,48.8 132.3,49.1 131.3,49.6 L131.3,49.9 L132.8,49.9 L132.8,54.2 L132.7,57.9 C132.7,58.4 132.5,58.7 131.9,58.9 L131.3,59 C131.3,59.1 131.3,59.2 131.3,59.3 L136.7,59.3 C136.7,59.2 136.8,59.1 136.8,59 L136,58.8 C135.5,58.7 135.3,58.4 135.3,57.9 L135.2,54.2 L135.2,50.9 C135.8,50.6 136.4,50.5 137,50.5 C138.5,50.5 139.2,51.2 139.2,53 L139.2,54.2 L139.1,57.9 C139.1,58.4 138.9,58.7 138.3,58.9 L138,59 C138,59.1 138,59.2 138,59.3 L143.4,59.3 C143.4,59.2 143.5,59.1 143.5,59 L142.7,58.8 C142.2,58.7 142,58.4 142,57.9 L141.9,54.2 L141.9,52.4 C141.9,51.9 141.8,51.4 141.7,51 C142.4,50.7 143,50.5 143.7,50.5 C145.2,50.5 145.9,51.2 145.9,53 L145.9,54.2 L145.8,57.9 C145.8,58.4 145.6,58.7 145,58.9 L144.4,59 C144.4,59.1 144.4,59.2 144.4,59.3 L149.8,59.3 C149.8,59.2 149.9,59.1 149.9,59 L149.1,58.8 C148.8,58.6 148.6,58.4 148.6,57.9 Z M128.5,58.2 L128.3,54.5 L128.3,49.7 C128.3,49 128,48.8 127.3,48.8 C126.3,48.8 125.2,49.1 124.2,49.5 L124.2,49.8 L125.7,49.8 L125.7,57.3 C125.1,57.6 124.6,57.8 124,57.8 C122.5,57.8 121.8,57 121.8,55.1 L121.8,49.6 C121.8,48.9 121.5,48.7 120.8,48.7 C119.8,48.7 118.7,49 117.7,49.5 L117.7,49.8 L119.2,49.8 L119.2,55.8 C119.2,58.3 120.3,59.4 122.2,59.4 C123.5,59.4 124.6,58.8 125.6,57.9 L125.6,58 C125.7,58.9 126.2,59.3 127.4,59.3 C128.2,59.3 129.2,58.8 129.8,58.3 L129.8,58.1 L128.5,58.1 L128.5,58.2 Z M192.1,58.2 L191.9,54.3 L191.9,51.7 C191.9,49.3 190.2,48.7 188.6,48.7 C186.9,48.7 185.1,49.7 184.3,50.4 L184.5,50.6 C185.2,50.2 186.2,50 187.1,50 C188.3,50 189.4,50.5 189.4,52 L189.4,54 L187.7,54.2 C185.7,54.4 183.6,55.1 183.6,57.3 C183.6,58.5 184.5,59.5 186.1,59.5 C187.5,59.5 188.5,58.7 189.4,57.7 L189.4,58 C189.4,59.1 190,59.5 191.2,59.5 C191.9,59.5 193,59.1 193.6,58.5 L193.6,58.3 L192.1,58.3 L192.1,58.2 Z M189.4,57.3 C188.7,57.7 188.1,57.9 187.5,57.9 C186.6,57.9 186,57.4 186,56.3 C186,55.4 186.6,54.9 187.8,54.6 C188.3,54.5 188.9,54.4 189.3,54.3 L189.3,57.3 L189.4,57.3 Z M180.8,45.5 C180.8,45.2 179.6,44.1 179.3,44.1 C179,44.1 177.9,45.2 177.9,45.5 C177.9,45.8 179,46.9 179.3,46.9 C179.6,46.9 180.8,45.7 180.8,45.5 Z M180.7,57.9 L180.6,54.2 L180.6,49.8 C180.6,49.1 180.3,48.9 179.6,48.9 C178.6,48.9 177.5,49.2 176.5,49.7 L176.5,50 L178,50 L178,54.3 L177.9,58 C177.9,58.5 177.7,58.8 177.1,59 L176.5,59.1 C176.5,59.2 176.5,59.3 176.5,59.4 L181.9,59.4 C181.9,59.3 182,59.2 182,59.1 L181.2,58.9 C180.9,58.6 180.7,58.4 180.7,57.9 Z M173.7,57.9 L173.6,54.2 L173.6,52.4 C173.6,49.8 172.4,48.8 170.5,48.8 C169.1,48.8 167.8,49.5 166.8,50.5 L166.8,49.8 C166.8,49.1 166.5,48.9 165.8,48.9 C164.8,48.9 163.7,49.2 162.7,49.7 L162.7,50 L164.2,50 L164.2,54.3 L164.1,58 C164.1,58.5 163.9,58.8 163.3,59 L162.7,59.1 C162.7,59.2 162.7,59.3 162.7,59.4 L168.1,59.4 C168.1,59.3 168.2,59.2 168.2,59.1 L167.4,58.9 C166.9,58.8 166.7,58.5 166.7,58 L166.6,54.3 L166.6,51.1 C167.3,50.8 168,50.6 168.6,50.6 C170.1,50.6 170.9,51.3 170.9,53.1 L170.9,54.3 L170.8,58 C170.8,58.5 170.6,58.8 170,59 L169.4,59.1 C169.4,59.2 169.4,59.3 169.4,59.4 L174.8,59.4 C174.8,59.3 174.9,59.2 174.9,59.1 L174.1,58.9 C173.9,58.6 173.7,58.4 173.7,57.9 Z M215.1,28.5 L215.1,27.4 C215.1,26.7 214.8,26.5 214.1,26.5 C213.1,26.5 212,26.8 211,27.3 L211,27.6 L212.5,27.6 L212.5,31.9 L212.4,35.6 C212.4,36.1 212.2,36.4 211.6,36.6 L211,36.7 C211,36.8 211,36.9 211,37 L216.4,37 C216.4,36.9 216.5,36.8 216.5,36.7 L215.7,36.5 C215.2,36.4 215,36.1 215,35.6 L214.9,31.9 L214.9,28.9 C215.4,28.6 216.1,28.3 216.9,28.3 C217.5,28.3 218.1,28.4 218.7,28.7 L219.3,26.7 C218.9,26.6 218.6,26.5 218.1,26.5 C216.9,26.5 215.7,27.5 215.1,28.5 Z M132.8,28.5 C133.5,28.1 134.5,27.9 135.4,27.9 C136.6,27.9 137.7,28.4 137.7,29.9 L137.7,31.8 L136,32 C134,32.2 131.9,32.9 131.9,35.1 C131.9,36.3 132.8,37.3 134.4,37.3 C135.8,37.3 136.8,36.5 137.7,35.5 L137.7,35.8 C137.7,36.9 138.3,37.3 139.5,37.3 C140.2,37.3 141.3,36.9 141.9,36.3 L141.9,36.1 L140.4,36.1 L140.2,32.3 L140.2,29.7 C140.2,27.3 138.5,26.7 136.9,26.7 C135.2,26.7 133.4,27.7 132.6,28.4 L132.8,28.5 Z M137.7,35 C137,35.4 136.4,35.6 135.8,35.6 C134.9,35.6 134.3,35.1 134.3,34 C134.3,33.1 134.9,32.6 136.1,32.3 C136.6,32.2 137.2,32.1 137.6,32 L137.6,35 L137.7,35 Z M232.8,36 L231.4,36 L231.2,32.3 L231.2,27.5 C231.2,26.8 230.9,26.6 230.2,26.6 C229.2,26.6 228.1,26.9 227.1,27.3 L227.1,27.6 L228.6,27.6 L228.6,35.1 C228,35.4 227.5,35.6 226.9,35.6 C225.4,35.6 224.7,34.8 224.7,32.9 L224.7,27.4 C224.7,26.7 224.4,26.5 223.7,26.5 C222.7,26.5 221.6,26.8 220.6,27.3 L220.6,27.6 L222.1,27.6 L222.1,33.6 C222.1,36.1 223.2,37.2 225.1,37.2 C226.4,37.2 227.5,36.6 228.5,35.7 L228.5,35.8 C228.6,36.7 229.1,37.1 230.3,37.1 C231.1,37.1 232.1,36.6 232.7,36.1 L232.8,36 Z M204.3,26.5 C201.4,26.5 199.1,29.3 199.1,32 C199.1,35.5 200.8,37.1 204.1,37.1 C207.1,37.1 209.3,34.2 209.3,31.6 C209.3,28.2 207.5,26.5 204.3,26.5 Z M204.3,36.6 C202.3,36.6 201.8,34.5 201.8,31.7 C201.8,29 202.3,27.1 204.1,27.1 C206.2,27.1 206.6,29.8 206.6,32 C206.5,34.8 206,36.6 204.3,36.6 Z M148.2,27.6 L149.7,27.6 L149.7,31.7 L149.5,39.7 C149.5,40.2 149.3,40.5 148.7,40.7 L148.1,40.8 C148.1,40.9 148.1,41 148.1,41.1 L153.6,41.1 C153.6,41 153.7,40.9 153.7,40.8 L152.9,40.6 C152.4,40.5 152.2,40.2 152.2,39.7 L152.2,37 C152.6,37.1 153,37.1 153.6,37.1 C156.6,37.1 159.1,35.3 159.1,31.5 C159.1,28.1 157.7,26.5 155.1,26.5 C153.9,26.5 152.9,27.1 152.2,27.8 L152.2,27.4 C152.2,26.7 151.9,26.5 151.2,26.5 C150.2,26.5 149.1,26.8 148.1,27.3 L148.1,27.6 L148.2,27.6 Z M152.3,28.3 C152.7,28.1 153.4,27.9 154,27.9 C155.7,27.9 156.5,28.8 156.5,31.9 C156.5,34.7 155.7,36.5 153.8,36.5 C153.1,36.5 152.7,36.4 152.3,36.2 L152.3,31.4 L152.3,28.3 Z M129.1,35.6 L129,31.9 L129,30.1 C129,27.5 127.8,26.5 125.9,26.5 C124.5,26.5 123.2,27.2 122.2,28.2 L122.2,27.5 C122.2,26.8 121.9,26.6 121.2,26.6 C120.2,26.6 119.1,26.9 118.1,27.4 L118.1,27.7 L119.6,27.7 L119.6,32 L119.5,35.7 C119.5,36.2 119.3,36.5 118.7,36.7 L118.1,36.8 C118.1,36.9 118.1,37 118.1,37.1 L123.5,37.1 C123.5,37 123.6,36.9 123.6,36.8 L122.8,36.6 C122.3,36.5 122.1,36.2 122.1,35.7 L122,32 L122,28.8 C122.7,28.5 123.4,28.3 124,28.3 C125.5,28.3 126.3,29 126.3,30.8 L126.3,32 L126.2,35.7 C126.2,36.2 126,36.5 125.4,36.7 L124.8,36.8 C124.8,36.9 124.8,37 124.8,37.1 L130.2,37.1 C130.2,37 130.3,36.9 130.3,36.8 L129.5,36.6 C129.2,36.4 129.1,36.1 129.1,35.6 Z M184.7,36 L183.3,36 L183.1,32 L183.1,23.5 C183.1,22.8 182.8,22.6 182.1,22.6 C181.1,22.6 180,22.9 179,23.4 L179,23.7 L180.5,23.7 L180.5,26.7 C180.1,26.6 179.6,26.6 178.9,26.6 C176,26.6 173.6,28.8 173.6,32.2 C173.6,36.4 175.7,37.1 177.7,37.1 C178.8,37.1 179.8,36.6 180.5,35.9 C180.6,36.7 181.1,37.1 182.3,37.1 C183.1,37.1 184.1,36.6 184.7,36.1 L184.7,36 Z M180.5,35.5 C180,35.7 179.5,35.8 178.9,35.8 C177.4,35.8 176.2,34.6 176.2,31.5 C176.2,28.6 177.1,27.1 179,27.1 C179.6,27.1 180.1,27.2 180.5,27.4 L180.5,35.5 L180.5,35.5 Z M171.5,31.7 C171.5,28.2 169.7,26.5 166.5,26.5 C163.6,26.5 161.3,29.3 161.3,32 C161.3,35.5 163,37.1 166.3,37.1 C169.4,37.2 171.5,34.3 171.5,31.7 Z M164.1,31.7 C164.1,29 164.6,27.1 166.4,27.1 C168.5,27.1 168.9,29.8 168.9,32 C168.9,34.8 168.3,36.6 166.6,36.6 C164.6,36.6 164.1,34.5 164.1,31.7 Z M192.9,26.5 C191.7,26.5 190.7,27.1 190,27.8 L190,27.4 C190,26.7 189.7,26.5 189,26.5 C188,26.5 186.9,26.8 185.9,27.3 L185.9,27.6 L187.4,27.6 L187.4,31.7 L187.2,39.7 C187.2,40.2 187,40.5 186.4,40.7 L185.8,40.8 C185.8,40.9 185.8,41 185.8,41.1 L191.3,41.1 C191.3,41 191.4,40.9 191.4,40.8 L190.6,40.6 C190.1,40.5 189.9,40.2 189.9,39.7 L189.9,37 C190.3,37.1 190.7,37.1 191.3,37.1 C194.3,37.1 196.8,35.3 196.8,31.5 C197,28.1 195.6,26.5 192.9,26.5 Z M191.6,36.5 C190.9,36.5 190.5,36.4 190.1,36.2 L190.1,31.4 L190.1,28.3 C190.5,28.1 191.2,27.9 191.8,27.9 C193.5,27.9 194.3,28.8 194.3,31.9 C194.3,34.6 193.4,36.5 191.6,36.5 Z M156.4,15 C157.5,15 158.5,14.5 159.2,13.8 C159.3,14.6 159.8,15 161,15 C161.8,15 162.8,14.5 163.4,14 L163.4,13.8 L162,13.8 L161.8,9.8 L161.8,1.3 C161.8,0.6 161.5,0.4 160.8,0.4 C159.8,0.4 158.7,0.7 157.7,1.2 L157.7,1.5 L159.2,1.5 L159.2,4.5 C158.8,4.4 158.3,4.4 157.6,4.4 C154.7,4.4 152.3,6.6 152.3,10 C152.4,14.2 154.5,15 156.4,15 Z M157.7,5 C158.3,5 158.8,5.1 159.2,5.3 L159.2,13.4 C158.7,13.6 158.2,13.7 157.6,13.7 C156.1,13.7 154.9,12.5 154.9,9.4 C154.9,6.5 155.8,5 157.7,5 Z M136.5,9.6 C136.5,6.1 134.7,4.4 131.5,4.4 C128.6,4.4 126.3,7.2 126.3,9.9 C126.3,13.4 128,15 131.3,15 C134.4,15.1 136.5,12.2 136.5,9.6 Z M131.5,14.5 C129.5,14.5 129,12.4 129,9.6 C129,6.9 129.5,5 131.3,5 C133.4,5 133.8,7.7 133.8,9.9 C133.8,12.7 133.2,14.5 131.5,14.5 Z M139.8,9.7 L139.7,13.4 C139.7,13.9 139.5,14.2 138.9,14.4 L138.3,14.5 C138.3,14.6 138.3,14.7 138.3,14.8 L143.7,14.8 C143.7,14.7 143.8,14.6 143.8,14.5 L143,14.3 C142.5,14.2 142.3,13.9 142.3,13.4 L142.2,9.7 L142.2,6.5 C142.9,6.2 143.6,6 144.2,6 C145.7,6 146.5,6.7 146.5,8.5 L146.5,9.7 L146.4,13.4 C146.4,13.9 146.2,14.2 145.6,14.4 L145,14.5 C145,14.6 145,14.7 145,14.8 L150.4,14.8 C150.4,14.7 150.5,14.6 150.5,14.5 L149.7,14.3 C149.2,14.2 149,13.9 149,13.4 L148.9,9.7 L148.9,7.9 C148.9,5.3 147.7,4.3 145.8,4.3 C144.4,4.3 143.1,5 142.1,6 L142.1,5.3 C142.1,4.6 141.8,4.4 141.1,4.4 C140.1,4.4 139,4.7 138,5.2 L138,5.5 L139.5,5.5 L139.5,9.7 L139.8,9.7 Z M119.7,9.7 L119.6,13.4 C119.6,13.9 119.4,14.2 118.8,14.4 L118.2,14.5 C118.2,14.6 118.2,14.7 118.2,14.8 L123.6,14.8 C123.6,14.7 123.7,14.6 123.7,14.5 L122.9,14.3 C122.4,14.2 122.2,13.9 122.2,13.4 L122.1,9.7 L122.1,6 L124.3,6 L124.3,5.2 L122.1,5.2 L122.1,4 C122.1,2.4 122.3,0.9 123.9,0.9 C124.7,0.9 125.3,2 126,3 C126.6,2.8 127.1,2.4 127.1,1.8 C127.1,0.9 125.7,0.4 123.9,0.4 C121.9,0.4 119.6,2.1 119.6,4.2 L119.6,5.3 L118.1,5.5 L118.1,6 L119.6,6 L119.6,9.7 L119.7,9.7 Z M92.1,51.1 C90.1,51.1 83.5,57.5 83.5,59.7 C83.5,61.8 90.1,68.5 92.1,68.5 C94.1,68.5 100.8,61.7 100.8,59.7 C100.9,57.6 94.1,51.1 92.1,51.1 Z" id="XMLID_306_"/>
        </g>
    </g>
</svg>